<?xml version="1.0" standalone="no"?><!DOCTYPE svg PUBLIC "-//W3C//DTD SVG 1.1//EN" "http://www.w3.org/Graphics/SVG/1.1/DTD/svg11.dtd"><svg t="1704098930540" class="icon" viewBox="0 0 1034 1024" version="1.1" xmlns="http://www.w3.org/2000/svg" p-id="5172" xmlns:xlink="http://www.w3.org/1999/xlink" width="201.953125" height="200"><path d="M993.28 942.5408H40.96a40.96 40.96 0 0 1-40.96-40.96V122.4192a40.96 40.96 0 0 1 40.96-40.96h952.32a40.96 40.96 0 0 1 40.96 40.96v779.1616a40.96 40.96 0 0 1-40.96 40.96z m-911.36-81.92h870.4V163.3792H81.92v697.2416z" fill="#efb336" p-id="5173"></path><path d="M509.78304 765.93152a40.96512 40.96512 0 0 1-40.58624-35.24608l-37.69344-267.34592-48.92672 138.0864a40.97536 40.97536 0 0 1-35.7632 27.18208 40.92416 40.92416 0 0 1-39.18336-21.9648l-39.17312-75.33568H62.60736a40.96 40.96 0 0 1 0-81.92H293.3248a40.96 40.96 0 0 1 36.34176 22.06208l7.168 13.78816L410.11712 278.4256a40.96 40.96 0 0 1 79.17056 7.9616l37.05856 262.85056 52.85888-155.19744a40.96 40.96 0 0 1 75.10528-5.7088l31.80544 61.06624h268.85632a40.96 40.96 0 0 1 0 81.92h-293.70368a40.94464 40.94464 0 0 1-35.35872-20.29056l-77.36832 227.15392a40.99072 40.99072 0 0 1-38.7584 27.7504z" fill="#efb336" p-id="5174"></path></svg>