<?xml version="1.0" standalone="no"?>
<!DOCTYPE svg PUBLIC "-//W3C//DTD SVG 1.1//EN" "http://www.w3.org/Graphics/SVG/1.1/DTD/svg11.dtd"><svg t="1707822292321" class="icon" viewBox="0 0 1024 1024" version="1.1" xmlns="http://www.w3.org/2000/svg" p-id="5999" width="128" height="128" xmlns:xlink="http://www.w3.org/1999/xlink">
  <path d="M512.085333 172.600889L142.108444 542.293333H238.08v325.688889h153.884444V640c0-22.101333 17.92-39.992889 39.992889-39.992889h160c22.101333 0 40.021333 17.891556 40.021334 39.992889v227.982222h153.884444v-325.688889h96.113778L535.182222 195.697778l-23.096889-23.096889zM946.631111 595.484444z m-887.011555-34.702222a64.056889 64.056889 0 0 0 63.089777 53.504h0.910223c-31.886222 0-58.88-22.983111-64-53.475555z m-0.910223-10.496v-1.877333 1.877333z m0.113778-2.588444z" fill="#1e6e64" p-id="6000"></path>
  <path d="M405.333333 863.36h202.666667v-222.933333a5.6 5.6 0 0 0-5.333333-5.866667H410.666667a5.6 5.6 0 0 0-5.333334 5.866667z" p-id="6849" data-spm-anchor-id="a313x.search_index.0.i1.553c3a81cTzm8J" class="selected" fill="#a06446"></path>
  <path d="M951.011556 510.008889c0-0.113778-0.113778-0.113778-0.113778-0.199111l-1.792-2.104889c-0.085333-0.113778-0.199111-0.284444-0.398222-0.398222-0.711111-0.796444-1.507556-1.592889-2.190223-2.417778L560.071111 118.812444l-25.884444-25.884444a31.516444 31.516444 0 0 0-44.401778 0L77.511111 504.974222c-7.452444 7.395556-12.942222 16.554667-16.014222 26.595556l-0.568889 2.104889-0.312889 1.109333-0.284444 1.194667c-0.227556 0.682667-0.312889 1.422222-0.426667 2.104889 0 0.085333 0 0.284444-0.085333 0.398222a55.153778 55.153778 0 0 0-1.024 9.102222v3.299556c0 0.483556 0 0.995556 0.113777 1.479111 0 0.512 0 0.910222 0.085334 1.422222 0 0.483556 0.113778 0.995556 0.113778 1.479111 0 0.597333 0.085333 1.223111 0.199111 1.820444 0 0.284444 0.085333 0.568889 0.085333 0.881778l0.312889 2.503111v0.113778c5.12 30.492444 32.199111 53.475556 64 53.475556h42.496v325.916444h691.712v-325.688889h43.377778c8.618667 0 16.924444-1.706667 24.519111-4.920889a66.56 66.56 0 0 0 20.792889-13.880889 63.601778 63.601778 0 0 0 18.688-45.312c0-14.705778-4.977778-28.785778-14.279111-40.192zM568.007111 868.010667H455.964444v-204.003556h112.014223v204.003556z m217.884445-325.688889v325.688889h-153.884445V640c0-22.101333-17.92-39.992889-39.992889-39.992889h-160c-22.101333 0-40.021333 17.92-40.021333 39.992889v228.010667h-153.884445v-325.688889H142.108444L512.113778 172.572444l23.096889 23.096889 346.794666 346.595556H785.92z" fill="#fff" p-id="6001" data-spm-anchor-id="a313x.search_index.0.i0.553c3a81S2M2mG" class="selected"></path>
</svg>